<svg xmlns="http://www.w3.org/2000/svg" width="16.315" height="16.303" viewBox="0 0 16.315 16.303"><defs><style>.a{fill:none;}.b,.c{fill:#7d60f5;}.b{stroke:#7d60f5;stroke-width:0.3px;}</style></defs><g transform="translate(0.152 0.144)"><path class="a" d="M170.365,168.694a5.326,5.326,0,0,0-3.828-8.07,5.346,5.346,0,0,1,.053.788,5.422,5.422,0,0,1-5.471,5.247h-.556a5.448,5.448,0,0,0,5.41,4.566h4.916l-.517-.879A1.6,1.6,0,0,1,170.365,168.694Z" transform="translate(-155.546 -155.595)"/><g transform="translate(0 0.01)"><path class="b" d="M15.154,14.556a1.214,1.214,0,0,1,0-1.256,5.707,5.707,0,0,0-3.8-8.6,5.707,5.707,0,0,0-1.7-3.124A5.714,5.714,0,0,0,.018,6.165,5.7,5.7,0,0,0,.86,8.731a1.214,1.214,0,0,1,0,1.256l-.529.883a.38.38,0,0,0,.327.575H4.706a5.84,5.84,0,0,0,5.707,4.566h4.931a.38.38,0,0,0,.327-.575ZM1.324,10.683l.183-.308a1.975,1.975,0,0,0,0-2.043,4.946,4.946,0,1,1,9.158-2.523,5.041,5.041,0,0,1-5.091,4.874Zm9.1,4.566a5.08,5.08,0,0,1-4.946-3.8h.091A5.806,5.806,0,0,0,11.425,5.82V5.489A4.946,4.946,0,0,1,14.507,12.9a1.975,1.975,0,0,0,0,2.043l.183.308H10.428Z" transform="translate(0 -0.01)"/><path class="c" d="M120.763,106.259h0c0,.38-.358.624-1.275.662l-.038.038.167,1.179h.761l.08-.445c.776-.137,1.4-.517,1.4-1.45h0c0-.966-.711-1.522-1.762-1.522a2.283,2.283,0,0,0-1.781.788l.67.734a1.5,1.5,0,0,1,1.092-.5C120.515,105.741,120.763,105.931,120.763,106.259Z" transform="translate(-114.622 -101.448)"/><rect class="c" width="1.179" height="1.164" rx="0.582" transform="translate(4.755 7.267)"/></g></g></svg>